<svg t="1700803168183" class="icon" viewBox="0 0 1024 1024" version="1.1" xmlns="http://www.w3.org/2000/svg" p-id="10665" width="200" height="200"><path d="M511 512m-425 0a425 425 0 1 0 850 0 425 425 0 1 0-850 0Z" fill="#DCEDFF" p-id="10666"></path><path d="M217.12 297.68m124.51 0l340.86 0q124.51 0 124.51 124.51l0 181.61q0 124.51-124.51 124.51l-340.86 0q-124.51 0-124.51-124.51l0-181.61q0-124.51 124.51-124.51Z" fill="#468EF7" p-id="10667"></path><path d="M334.51 328.85h355.11a85.21 85.21 0 0 1 85.21 85.21v1.57A14.31 14.31 0 0 1 760.52 430H263.6a14.31 14.31 0 0 1-14.31-14.31v-1.57a85.21 85.21 0 0 1 85.22-85.27z" fill="#88C4FF" p-id="10668"></path><path d="M327.12 237.16m38.47 0l0.01 0q38.47 0 38.47 38.47l0 65.93q0 38.47-38.47 38.47l-0.01 0q-38.47 0-38.47-38.47l0-65.93q0-38.47 38.47-38.47Z" fill="#468EF7" p-id="10669"></path><path d="M612.03 237.16m38.47 0l0.01 0q38.47 0 38.47 38.47l0 65.93q0 38.47-38.47 38.47l-0.01 0q-38.47 0-38.47-38.47l0-65.93q0-38.47 38.47-38.47Z" fill="#468EF7" p-id="10670"></path><path d="M625.89 469.65m29.99 0l41.03 0q29.99 0 29.99 29.99l0 9.79q0 29.99-29.99 29.99l-41.03 0q-29.99 0-29.99-29.99l0-9.79q0-29.99 29.99-29.99Z" fill="#88C4FF" p-id="10671"></path><path d="M461.37 469.65m29.99 0l41.03 0q29.99 0 29.99 29.99l0 9.79q0 29.99-29.99 29.99l-41.03 0q-29.99 0-29.99-29.99l0-9.79q0-29.99 29.99-29.99Z" fill="#88C4FF" p-id="10672"></path><path d="M296.84 469.65m29.99 0l41.03 0q29.99 0 29.99 29.99l0 9.79q0 29.99-29.99 29.99l-41.03 0q-29.99 0-29.99-29.99l0-9.79q0-29.99 29.99-29.99Z" fill="#88C4FF" p-id="10673"></path><path d="M625.89 579.08m29.99 0l41.03 0q29.99 0 29.99 29.99l0 9.79q0 29.99-29.99 29.99l-41.03 0q-29.99 0-29.99-29.99l0-9.79q0-29.99 29.99-29.99Z" fill="#88C4FF" p-id="10674"></path><path d="M461.37 579.08m29.99 0l41.03 0q29.99 0 29.99 29.99l0 9.79q0 29.99-29.99 29.99l-41.03 0q-29.99 0-29.99-29.99l0-9.79q0-29.99 29.99-29.99Z" fill="#88C4FF" p-id="10675"></path><path d="M296.84 579.08m29.99 0l41.03 0q29.99 0 29.99 29.99l0 9.79q0 29.99-29.99 29.99l-41.03 0q-29.99 0-29.99-29.99l0-9.79q0-29.99 29.99-29.99Z" fill="#88C4FF" p-id="10676"></path></svg>