<svg t="1700803136967" class="icon" viewBox="0 0 1024 1024" version="1.1" xmlns="http://www.w3.org/2000/svg" p-id="10522" width="200" height="200"><path d="M515 514m-425 0a425 425 0 1 0 850 0 425 425 0 1 0-850 0Z" fill="#DCEDFF" p-id="10523"></path><path d="M818 568c0-105-85.07-190-190-190s-190 85-190 190 85.07 190 190 190c3 0 6.08-0.08 9.09-0.22h156.39a10.22 10.22 0 0 0 10.25-10.17l-34.34-52.7A189.3 189.3 0 0 0 818 568z" fill="#88C4FF" p-id="10524"></path><path d="M243.43 476.84c0-140.78 114.12-254.9 254.9-254.9s254.89 114.12 254.89 254.9-114.12 254.9-254.89 254.9c-4.09 0-8.16-0.11-12.2-0.3H276.32a13.71 13.71 0 0 1-13.75-13.65l46.07-70.7a253.92 253.92 0 0 1-65.21-170.25z" fill="#468EF7" p-id="10525"></path><path d="M381.5 471.53m-35.2 0a35.2 35.2 0 1 0 70.4 0 35.2 35.2 0 1 0-70.4 0Z" fill="#88C4FF" p-id="10526"></path><path d="M502 471.53m-35.2 0a35.2 35.2 0 1 0 70.4 0 35.2 35.2 0 1 0-70.4 0Z" fill="#88C4FF" p-id="10527"></path><path d="M622.5 471.53m-35.2 0a35.2 35.2 0 1 0 70.4 0 35.2 35.2 0 1 0-70.4 0Z" fill="#88C4FF" p-id="10528"></path></svg>