<svg t="1700803207550" class="icon" viewBox="0 0 1024 1024" version="1.1" xmlns="http://www.w3.org/2000/svg" p-id="11109" width="200" height="200"><path d="M513 512m-425 0a425 425 0 1 0 850 0 425 425 0 1 0-850 0Z" fill="#DCEDFF" p-id="11110"></path><path d="M274.92 234.67m84.88 0l326.32 0q84.88 0 84.88 84.88l0 386.27q0 84.88-84.88 84.88l-326.32 0q-84.88 0-84.88-84.88l0-386.27q0-84.88 84.88-84.88Z" fill="#468EF7" p-id="11111"></path><path d="M213.23 341.62m34.85 0l54.51 0q34.85 0 34.85 34.85l0 0.01q0 34.85-34.85 34.85l-54.51 0q-34.85 0-34.85-34.85l0-0.01q0-34.85 34.85-34.85Z" fill="#88C4FF" p-id="11112"></path><path d="M213.23 616.39m34.85 0l54.51 0q34.85 0 34.85 34.85l0 0.01q0 34.85-34.85 34.85l-54.51 0q-34.85 0-34.85-34.85l0-0.01q0-34.85 34.85-34.85Z" fill="#88C4FF" p-id="11113"></path><path d="M595.54 522.51a10.65 10.65 0 0 0-10.84 1.11l-46.83 41.67a22.45 22.45 0 0 1-29.83 0l-46.82-41.67a10.67 10.67 0 0 0-10.85-1.11c-36.93 17.71-61.63 48.19-61.63 83.24 0 55 60.09 62.66 134.22 62.66s134.21-7.68 134.21-62.66c0-35.05-24.69-65.53-61.63-83.24z" fill="#88C4FF" p-id="11114"></path><path d="M453.52 441.31a69.44 77.97 0 1 0 138.88 0 69.44 77.97 0 1 0-138.88 0Z" fill="#88C4FF" p-id="11115"></path></svg>