<svg t="1700803091114" class="icon" viewBox="0 0 1024 1024" version="1.1" xmlns="http://www.w3.org/2000/svg" p-id="10382" width="200" height="200"><path d="M515 512m-425 0a425 425 0 1 0 850 0 425 425 0 1 0-850 0Z" fill="#DCEDFF" p-id="10383"></path><path d="M568.23 484.87s116.84 9 174.93-49.08A112.31 112.31 0 0 0 776 355.18a116.11 116.11 0 0 0-34.15-81.08c-45-45-117.39-45.64-161.7-1.33-55.09 55.09-49.68 174.44-49.68 174.44 0.84 23.08 16.74 37.17 37.76 37.66z" fill="#88C4FF" p-id="10384"></path><path d="M287.68 274.1a116.11 116.11 0 0 0-34.15 81.08 112.31 112.31 0 0 0 32.83 80.61c58.09 58.09 174.93 49.08 174.93 49.08 21-0.49 36.92-14.58 37.77-37.66 0 0 5.41-119.35-49.68-174.44-44.31-44.31-116.71-43.68-161.7 1.33zM568.23 516.88c-21 0.49-36.92 14.58-37.77 37.67 0 0-5.41 119.34 49.68 174.43 44.31 44.31 116.71 43.68 161.7-1.33A116.11 116.11 0 0 0 776 646.57 112.35 112.35 0 0 0 743.16 566c-58.09-58.13-174.93-49.12-174.93-49.12zM461.29 516.88s-116.84-9-174.93 49.08a112.35 112.35 0 0 0-32.83 80.61 116.11 116.11 0 0 0 34.15 81.08c45 45 117.39 45.64 161.7 1.33 55.09-55.09 49.68-174.43 49.68-174.43-0.85-23.09-16.75-37.18-37.77-37.67z" fill="#468EF7" p-id="10385"></path></svg>