<svg t="1700803237308" class="icon" viewBox="0 0 1024 1024" version="1.1" xmlns="http://www.w3.org/2000/svg" p-id="11252" width="200" height="200"><path d="M513 512m-425 0a425 425 0 1 0 850 0 425 425 0 1 0-850 0Z" fill="#DCEDFF" p-id="11253"></path><path d="M760.47 459.09a53.24 53.24 0 0 0 10.44-55.23 361.26 361.26 0 0 0-37.5-67.69 50.7 50.7 0 0 0-41-19.93 53.36 53.36 0 0 0-11.12 1.16 74.8 74.8 0 0 1-16.29 1.81 76.44 76.44 0 0 1-37.83-10.16 73.42 73.42 0 0 1-34.37-42.67 53.09 53.09 0 0 0-42.67-36.45 324.48 324.48 0 0 0-38.92-2.35 307.05 307.05 0 0 0-38.09 2.35 53.09 53.09 0 0 0-42.67 36.45 75.54 75.54 0 0 1-88.54 51.06 53.28 53.28 0 0 0-11.12-1.15 54.13 54.13 0 0 0-42 19.93 266.55 266.55 0 0 0-38.53 66.65 53.23 53.23 0 0 0 10.43 55.23 76.49 76.49 0 0 1 0 102.1 53.22 53.22 0 0 0-10.43 55.22 285.84 285.84 0 0 0 38.53 66.66 52.44 52.44 0 0 0 41 19.93 53.49 53.49 0 0 0 11.07-1.16 77.45 77.45 0 0 1 16.42-1.77 74.77 74.77 0 0 1 72.11 52.84 53.17 53.17 0 0 0 42.67 36.46 243.84 243.84 0 0 0 38.54 3.13c12.6 0 25.95-1 38.46-2.14a53.14 53.14 0 0 0 42.67-36.46 76 76 0 0 1 72.2-52.91 74.8 74.8 0 0 1 16.34 1.81 48.44 48.44 0 0 0 10.67 1.19 53.52 53.52 0 0 0 41.43-19.93 264.59 264.59 0 0 0 38.54-66.66 53.24 53.24 0 0 0-10.44-55.22 76.49 76.49 0 0 1 0-102.1z m-249.91 202.4a152 152 0 1 1 152-151.95 151.95 151.95 0 0 1-152 151.95z" fill="#468EF7" p-id="11254"></path><path d="M510.56 509.54m-90.11 0a90.11 90.11 0 1 0 180.22 0 90.11 90.11 0 1 0-180.22 0Z" fill="#88C4FF" p-id="11255"></path></svg>